<svg width="318" height="234" viewBox="0 0 318 234" fill="none" xmlns="http://www.w3.org/2000/svg">
<circle cx="116" cy="29" r="5" transform="rotate(180 116 29)" fill="#FF4C4F"/>
<circle cx="100" cy="31" r="4" transform="rotate(180 100 31)" fill="#FF4C4F" fill-opacity="0.72"/>
<circle cx="85.5" cy="27.5" r="4.5" transform="rotate(180 85.5 27.5)" fill="#FF4C4F" fill-opacity="0.4"/>
<circle cx="5" cy="5" r="5" transform="matrix(-1 0 0 1 239 24)" fill="#FF4C4F"/>
<circle cx="4" cy="4" r="4" transform="matrix(-1 0 0 1 222 23)" fill="#FF4C4F" fill-opacity="0.72"/>
<circle cx="4.5" cy="4.5" r="4.5" transform="matrix(-1 0 0 1 208 26)" fill="#FF4C4F" fill-opacity="0.4"/>
<circle cx="5" cy="5" r="5" transform="matrix(1 0 0 -1 197 122)" fill="#FF4C4F"/>
<circle cx="4" cy="4" r="4" transform="matrix(1 0 0 -1 214 123)" fill="#FF4C4F" fill-opacity="0.72"/>
<circle cx="4.5" cy="4.5" r="4.5" transform="matrix(1 0 0 -1 228 120)" fill="#FF4C4F" fill-opacity="0.4"/>
<circle cx="84" cy="117" r="5" fill="#FF4C4F"/>
<circle cx="100" cy="115" r="4" fill="#FF4C4F" fill-opacity="0.72"/>
<circle cx="114.5" cy="118.5" r="4.5" fill="#FF4C4F" fill-opacity="0.4"/>
<circle cx="5" cy="5" r="5" transform="matrix(-1 0 0 1 121 200)" fill="#FF4C4F"/>
<circle cx="4" cy="4" r="4" transform="matrix(-1 0 0 1 104 199)" fill="#FF4C4F" fill-opacity="0.72"/>
<circle cx="4.5" cy="4.5" r="4.5" transform="matrix(-1 0 0 1 90 202)" fill="#FF4C4F" fill-opacity="0.4"/>
<circle cx="234" cy="205" r="5" transform="rotate(-180 234 205)" fill="#FF4C4F"/>
<circle cx="218" cy="207" r="4" transform="rotate(-180 218 207)" fill="#FF4C4F" fill-opacity="0.72"/>
<circle cx="203.5" cy="203.5" r="4.5" transform="rotate(-180 203.5 203.5)" fill="#FF4C4F" fill-opacity="0.4"/>
<circle cx="6" cy="181" r="5" transform="rotate(-90 6 181)" fill="#FF4C4F"/>
<circle cx="4" cy="165" r="4" transform="rotate(-90 4 165)" fill="#FF4C4F" fill-opacity="0.72"/>
<circle cx="7.5" cy="150.5" r="4.5" transform="rotate(-90 7.5 150.5)" fill="#FF4C4F" fill-opacity="0.4"/>
<circle cx="5" cy="5" r="5" transform="matrix(0 -1 -1 0 317 94)" fill="#FF4C4F"/>
<circle cx="4" cy="4" r="4" transform="matrix(0 -1 -1 0 318 77)" fill="#FF4C4F" fill-opacity="0.72"/>
<circle cx="4.5" cy="4.5" r="4.5" transform="matrix(0 -1 -1 0 315 63)" fill="#FF4C4F" fill-opacity="0.4"/>
</svg>
